<?xml version="1.0" encoding="UTF-8"?><svg width="24px" height="24px" stroke-width="1.5" viewBox="0 0 24 24" fill="none" xmlns="http://www.w3.org/2000/svg" color="#c2c3c7"><path d="M2 12c0 5.523 4.477 10 10 10s10-4.477 10-10S17.523 2 12 2" stroke="#c2c3c7" stroke-width="1.5" stroke-linecap="round" stroke-linejoin="round"></path><path d="M11.5 15.5s1.5-2 4.5-2 4.5 2 4.5 2M3 4c0-2.754 4-2.754 4 0 0 1.967-2 1.64-2 4M5 11.01l.01-.011" stroke="#c2c3c7" stroke-width="1.5" stroke-linecap="round" stroke-linejoin="round"></path><path d="M17.5 9a.5.5 0 110-1 .5.5 0 010 1zM10.5 9a.5.5 0 110-1 .5.5 0 010 1z" fill="#000" stroke="#c2c3c7" stroke-width="1.5" stroke-linecap="round" stroke-linejoin="round"></path></svg>